STARTFONT 2.1
FONT -JDECW-Mincho-Medium-R-Normal--8-80-75-75-M-80-JISX0208.1983-1.3
SIZE 8 75 75
FONTBOUNDINGBOX 10 10 0 -2

STARTPROPERTIES 26
FONTNAME_REGISTRY ""
FAMILY_NAME "Mincho"
FOUNDRY "JDECW"
WEIGHT_NAME "Medium"
SLANT "R"
SETWIDTH_NAME "Normal"
ADD_STYLE_NAME ""
PIXEL_SIZE 8
POINT_SIZE 80
RESOLUTION_X 75
RESOLUTION_Y 75
SPACING "M"
AVERAGE_WIDTH 80
CHARSET_REGISTRY "JISX0208.1983"
CHARSET_ENCODING "1"
DEVICE_FONT_NAME "Mincho-JISX0208.1983-1"
CHARSET_COLLECTIONS "JISX0208.1983 1"
FULL_NAME "Mincho-JISX0208.1983-1"
COPYRIGHT "Copyright (c) 1990 1991 TYPEBANK, Digital Equipment Corporation Japan"
CAP_HEIGHT 7
X_HEIGHT 5
WEIGHT 10
QUAD_WIDTH 10
DEFAULT_CHAR 41634
FONT_DESCENT 2
FONT_ASCENT 8
ENDPROPERTIES

CHARS 59

STARTCHAR Ca1a2
ENCODING 41378
SWIDTH 1000 0
DWIDTH 10 0
BBX 10 10 0 -2
BITMAP
0000
0100
0080
0000
0000
0000
0000
0000
0000
0000
ENDCHAR

STARTCHAR Ca1a3
ENCODING 41379
SWIDTH 1000 0
DWIDTH 10 0
BBX 10 10 0 -2
BITMAP
0000
0100
0280
0100
0000
0000
0000
0000
0000
0000
ENDCHAR

STARTCHAR Ca1a4
ENCODING 41380
SWIDTH 1000 0
DWIDTH 10 0
BBX 10 10 0 -2
BITMAP
0000
0180
0080
0100
0000
0000
0000
0000
0000
0000
ENDCHAR

STARTCHAR Ca1a5
ENCODING 41381
SWIDTH 1000 0
DWIDTH 10 0
BBX 10 10 0 -2
BITMAP
0000
0300
0000
0000
0000
0000
0000
0000
0000
0000
ENDCHAR

STARTCHAR Ca1b1
ENCODING 41393
SWIDTH 1000 0
DWIDTH 10 0
BBX 10 10 0 -2
BITMAP
0000
0080
0080
0080
0080
0080
0080
0080
0080
0000
ENDCHAR

STARTCHAR Ca1b2
ENCODING 41394
SWIDTH 1000 0
DWIDTH 10 0
BBX 10 10 0 -2
BITMAP
0000
4000
4000
4000
4000
4000
4000
4000
4000
0000
ENDCHAR

STARTCHAR Ca1bc
ENCODING 41404
SWIDTH 1000 0
DWIDTH 10 0
BBX 10 10 0 -2
BITMAP
0000
0000
0400
0400
0400
0400
0400
0400
0000
0000
ENDCHAR

STARTCHAR Ca1bd
ENCODING 41405
SWIDTH 1000 0
DWIDTH 10 0
BBX 10 10 0 -2
BITMAP
0000
0800
0800
0800
0800
0800
0800
0800
0800
0000
ENDCHAR

STARTCHAR Ca1be
ENCODING 41406
SWIDTH 1000 0
DWIDTH 10 0
BBX 10 10 0 -2
BITMAP
0000
0000
0000
0800
0800
0800
0800
0000
0000
0000
ENDCHAR

STARTCHAR Ca1c1
ENCODING 41409
SWIDTH 1000 0
DWIDTH 10 0
BBX 10 10 0 -2
BITMAP
0000
0400
0800
0800
0800
0400
0400
0400
0800
0000
ENDCHAR

STARTCHAR Ca1c2
ENCODING 41410
SWIDTH 1000 0
DWIDTH 10 0
BBX 10 10 0 -2
BITMAP
0000
0000
0000
7F80
0000
7F80
0000
0000
0000
0000
ENDCHAR

STARTCHAR Ca1c3
ENCODING 41411
SWIDTH 1000 0
DWIDTH 10 0
BBX 10 10 0 -2
BITMAP
0000
0000
0000
0000
7F80
0000
0000
0000
0000
0000
ENDCHAR

STARTCHAR Ca1c4
ENCODING 41412
SWIDTH 1000 0
DWIDTH 10 0
BBX 10 10 0 -2
BITMAP
0000
0400
0400
0000
0400
0400
0000
0400
0400
0000
ENDCHAR

STARTCHAR Ca1c5
ENCODING 41413
SWIDTH 1000 0
DWIDTH 10 0
BBX 10 10 0 -2
BITMAP
0000
0000
0400
0400
0000
0000
0400
0400
0000
0000
ENDCHAR

STARTCHAR Ca1c6
ENCODING 41414
SWIDTH 1000 0
DWIDTH 10 0
BBX 10 10 0 -2
BITMAP
0000
0000
0000
0000
0000
0000
0000
0280
0300
0000
ENDCHAR

STARTCHAR Ca1c7
ENCODING 41415
SWIDTH 1000 0
DWIDTH 10 0
BBX 10 10 0 -2
BITMAP
0000
0280
0180
0000
0000
0000
0000
0000
0000
0000
ENDCHAR

STARTCHAR Ca1c8
ENCODING 41416
SWIDTH 1000 0
DWIDTH 10 0
BBX 10 10 0 -2
BITMAP
0000
0000
0000
0000
0300
0280
0000
0300
0280
0000
ENDCHAR

STARTCHAR Ca1c9
ENCODING 41417
SWIDTH 1000 0
DWIDTH 10 0
BBX 10 10 0 -2
BITMAP
0000
0280
0180
0000
0280
0180
0000
0000
0000
0000
ENDCHAR

STARTCHAR Ca1ca
ENCODING 41418
SWIDTH 1000 0
DWIDTH 10 0
BBX 10 10 0 -2
BITMAP
0000
0000
0000
0000
0000
0000
1E00
2100
4080
0000
ENDCHAR

STARTCHAR Ca1cb
ENCODING 41419
SWIDTH 1000 0
DWIDTH 10 0
BBX 10 10 0 -2
BITMAP
0000
4080
2100
1E00
0000
0000
0000
0000
0000
0000
ENDCHAR

STARTCHAR Ca1cc
ENCODING 41420
SWIDTH 1000 0
DWIDTH 10 0
BBX 10 10 0 -2
BITMAP
0000
0000
0000
0000
0000
0000
3F00
4080
4080
0000
ENDCHAR

STARTCHAR Ca1cd
ENCODING 41421
SWIDTH 1000 0
DWIDTH 10 0
BBX 10 10 0 -2
BITMAP
0000
4080
4080
3F00
0000
0000
0000
0000
0000
0000
ENDCHAR

STARTCHAR Ca1ce
ENCODING 41422
SWIDTH 1000 0
DWIDTH 10 0
BBX 10 10 0 -2
BITMAP
0000
0000
0000
0000
0000
0000
7F80
4080
4080
0000
ENDCHAR

STARTCHAR Ca1cf
ENCODING 41423
SWIDTH 1000 0
DWIDTH 10 0
BBX 10 10 0 -2
BITMAP
0000
4080
4080
7F80
0000
0000
0000
0000
0000
0000
ENDCHAR

STARTCHAR Ca1d0
ENCODING 41424
SWIDTH 1000 0
DWIDTH 10 0
BBX 10 10 0 -2
BITMAP
0000
0000
0000
0000
0000
0000
0400
3B00
4080
0000
ENDCHAR

STARTCHAR Ca1d1
ENCODING 41425
SWIDTH 1000 0
DWIDTH 10 0
BBX 10 10 0 -2
BITMAP
0000
4080
3B00
0400
0000
0000
0000
0000
0000
0000
ENDCHAR

STARTCHAR Ca1d2
ENCODING 41426
SWIDTH 1000 0
DWIDTH 10 0
BBX 10 10 0 -2
BITMAP
0000
0000
0000
0000
0000
0C00
1200
2100
4080
0000
ENDCHAR

STARTCHAR Ca1d3
ENCODING 41427
SWIDTH 1000 0
DWIDTH 10 0
BBX 10 10 0 -2
BITMAP
0000
4080
2100
1200
0C00
0000
0000
0000
0000
0000
ENDCHAR

STARTCHAR Ca1d4
ENCODING 41428
SWIDTH 1000 0
DWIDTH 10 0
BBX 10 10 0 -2
BITMAP
0000
0000
0000
0C00
1200
2D00
5280
2100
4080
0000
ENDCHAR

STARTCHAR Ca1d5
ENCODING 41429
SWIDTH 1000 0
DWIDTH 10 0
BBX 10 10 0 -2
BITMAP
0000
4080
2100
5280
2D00
1200
0C00
0000
0000
0000
ENDCHAR

STARTCHAR Ca1d6
ENCODING 41430
SWIDTH 1000 0
DWIDTH 10 0
BBX 10 10 0 -2
BITMAP
0000
0000
0000
0000
0000
3F80
0080
0080
0080
0000
ENDCHAR

STARTCHAR Ca1d7
ENCODING 41431
SWIDTH 1000 0
DWIDTH 10 0
BBX 10 10 0 -2
BITMAP
0000
4000
4000
4000
7F00
0000
0000
0000
0000
0000
ENDCHAR

STARTCHAR Ca1d8
ENCODING 41432
SWIDTH 1000 0
DWIDTH 10 0
BBX 10 10 0 -2
BITMAP
0000
0000
0000
0000
3F80
2080
3E80
0280
0380
0000
ENDCHAR

STARTCHAR Ca1d9
ENCODING 41433
SWIDTH 1000 0
DWIDTH 10 0
BBX 10 10 0 -2
BITMAP
0000
7000
5000
5F00
4100
7F00
0000
0000
0000
0000
ENDCHAR

STARTCHAR Ca1da
ENCODING 41434
SWIDTH 1000 0
DWIDTH 10 0
BBX 10 10 0 -2
BITMAP
0000
0000
0000
0000
0000
0000
7F80
6180
4080
0000
ENDCHAR

STARTCHAR Ca1db
ENCODING 41435
SWIDTH 1000 0
DWIDTH 10 0
BBX 10 10 0 -2
BITMAP
0000
4080
6180
7F80
0000
0000
0000
0000
0000
0000
ENDCHAR

STARTCHAR Ca2a2
ENCODING 41634
SWIDTH 1000 0
DWIDTH 10 0
BBX 10 10 0 -2
BITMAP
0000
7F00
4100
4100
4100
4100
4100
7F00
0000
0000
ENDCHAR

STARTCHAR Ca4a1
ENCODING 42145
SWIDTH 1000 0
DWIDTH 10 0
BBX 10 10 0 -2
BITMAP
0000
0800
1E00
0800
0F00
1A80
2C80
1B00
0000
0000
ENDCHAR

STARTCHAR Ca4a3
ENCODING 42147
SWIDTH 1000 0
DWIDTH 10 0
BBX 10 10 0 -2
BITMAP
0000
0000
2200
2200
2100
2900
1000
0000
0000
0000
ENDCHAR

STARTCHAR Ca4a5
ENCODING 42149
SWIDTH 1000 0
DWIDTH 10 0
BBX 10 10 0 -2
BITMAP
0000
0700
0000
0700
0880
0080
0100
0600
0000
0000
ENDCHAR

STARTCHAR Ca4a7
ENCODING 42151
SWIDTH 1000 0
DWIDTH 10 0
BBX 10 10 0 -2
BITMAP
0000
0E00
0000
0700
1A00
0400
0A00
1380
0000
0000
ENDCHAR

STARTCHAR Ca4a9
ENCODING 42153
SWIDTH 1000 0
DWIDTH 10 0
BBX 10 10 0 -2
BITMAP
0000
0000
0800
1D00
0880
1E00
2900
1A00
0000
0000
ENDCHAR

STARTCHAR Ca4c3
ENCODING 42179
SWIDTH 1000 0
DWIDTH 10 0
BBX 10 10 0 -2
BITMAP
0000
0000
0F00
3080
0080
0100
0E00
0000
0000
0000
ENDCHAR

STARTCHAR Ca4e3
ENCODING 42211
SWIDTH 1000 0
DWIDTH 10 0
BBX 10 10 0 -2
BITMAP
0000
0C00
2200
1700
1880
2B00
0400
0400
0000
0000
ENDCHAR

STARTCHAR Ca4e5
ENCODING 42213
SWIDTH 1000 0
DWIDTH 10 0
BBX 10 10 0 -2
BITMAP
0000
0200
1700
1A80
1280
1700
0200
0400
0000
0000
ENDCHAR

STARTCHAR Ca4e7
ENCODING 42215
SWIDTH 1000 0
DWIDTH 10 0
BBX 10 10 0 -2
BITMAP
0000
0200
0200
0380
0200
0E00
1300
0E80
0000
0000
ENDCHAR

STARTCHAR Ca4ee
ENCODING 42222
SWIDTH 1000 0
DWIDTH 10 0
BBX 10 10 0 -2
BITMAP
0000
0000
0800
1B00
0C80
0880
1880
0900
0000
0000
ENDCHAR

STARTCHAR Ca5a1
ENCODING 42401
SWIDTH 1000 0
DWIDTH 10 0
BBX 10 10 0 -2
BITMAP
0000
0000
1F80
0100
0600
0400
0400
0800
0000
0000
ENDCHAR

STARTCHAR Ca5a3
ENCODING 42403
SWIDTH 1000 0
DWIDTH 10 0
BBX 10 10 0 -2
BITMAP
0000
0080
0080
0100
0300
0D00
0100
0100
0000
0000
ENDCHAR

STARTCHAR Ca5a5
ENCODING 42405
SWIDTH 1000 0
DWIDTH 10 0
BBX 10 10 0 -2
BITMAP
0000
0000
0200
0F80
0880
0880
0100
0200
0000
0000
ENDCHAR

STARTCHAR Ca5a7
ENCODING 42407
SWIDTH 1000 0
DWIDTH 10 0
BBX 10 10 0 -2
BITMAP
0000
0000
0000
3E00
0800
0800
7F00
0000
0000
0000
ENDCHAR

STARTCHAR Ca5a9
ENCODING 42409
SWIDTH 1000 0
DWIDTH 10 0
BBX 10 10 0 -2
BITMAP
0000
0000
0100
0100
0F80
0500
0500
0B00
0000
0000
ENDCHAR

STARTCHAR Ca5c3
ENCODING 42435
SWIDTH 1000 0
DWIDTH 10 0
BBX 10 10 0 -2
BITMAP
0000
0000
0480
1280
0880
0100
0600
0000
0000
0000
ENDCHAR

STARTCHAR Ca5e3
ENCODING 42467
SWIDTH 1000 0
DWIDTH 10 0
BBX 10 10 0 -2
BITMAP
0000
0000
0800
0780
1D00
0400
0200
0200
0000
0000
ENDCHAR

STARTCHAR Ca5e5
ENCODING 42469
SWIDTH 1000 0
DWIDTH 10 0
BBX 10 10 0 -2
BITMAP
0000
0000
0000
0F00
0100
0100
0F80
0000
0000
0000
ENDCHAR

STARTCHAR Ca5e7
ENCODING 42471
SWIDTH 1000 0
DWIDTH 10 0
BBX 10 10 0 -2
BITMAP
0000
0000
0780
0080
0780
0080
0780
0000
0000
0000
ENDCHAR

STARTCHAR Ca5ee
ENCODING 42478
SWIDTH 1000 0
DWIDTH 10 0
BBX 10 10 0 -2
BITMAP
0000
0000
0F80
0880
0880
0100
0200
0000
0000
0000
ENDCHAR

STARTCHAR Ca5f5
ENCODING 42485
SWIDTH 1000 0
DWIDTH 10 0
BBX 10 10 0 -2
BITMAP
0000
0000
0400
0F80
0480
0480
0880
1300
0000
0000
ENDCHAR

STARTCHAR Ca5f6
ENCODING 42486
SWIDTH 1000 0
DWIDTH 10 0
BBX 10 10 0 -2
BITMAP
0000
0000
0800
0F80
1200
0200
0400
0800
0000
0000
ENDCHAR
ENDFONT
